<svg width="301" height="64" viewBox="0 0 301 64" fill="none" xmlns="http://www.w3.org/2000/svg">
<path d="M38.8674 18.983C38.8674 24.8188 36.3034 29.0787 31.1754 31.7496C38.213 34.2068 41.7319 38.7872 41.7319 45.4977C41.7319 49.9714 40.3096 53.7907 37.4785 56.9556C33.7127 61.1021 26.9755 63.172 17.267 63.172H4.82754C2.75096 63.172 1.4289 63.0652 0.861345 62.8448C0.287115 62.6245 0 62.1371 0 61.3692V6.13624C0 5.31495 0.287115 4.80082 0.861345 4.58047C1.43558 4.36013 2.75764 4.2533 4.82754 4.2533H15.0569C23.1295 4.2533 29.0187 5.34834 32.7311 7.52507C36.8242 9.98225 38.8674 13.8015 38.8674 18.983ZM13.9952 14.7297V27.9036H16.2854C19.0698 27.9036 21.113 27.4095 22.4217 26.4279C23.8973 25.2795 24.6318 23.4833 24.6318 21.0262C24.6318 18.569 24.0042 17.0199 22.7489 16.0317C21.7139 15.157 19.5572 14.723 16.2854 14.723H13.9952V14.7297ZM13.9952 37.966V52.7758H17.4339C21.1998 52.7758 23.7638 52.2282 25.1259 51.1399C26.655 49.938 27.4162 47.9482 27.4162 45.1639C27.4162 42.5464 26.6483 40.6902 25.1259 39.6018C23.6503 38.5135 21.0596 37.966 17.3538 37.966H14.0019H13.9952Z" fill="white"/>
<path d="M86.7353 45.905H61.9433C62.818 50.9262 65.9562 53.4301 71.3513 53.4301C74.9502 53.4301 78.8764 52.502 83.1364 50.6457C83.6305 50.4254 84.0912 50.5255 84.5252 50.9328C84.9592 51.3401 85.3999 52.2282 85.8339 53.5903L86.4883 55.5534C86.9824 57.0825 87.2094 58.1174 87.1827 58.6649C87.156 59.2124 86.8689 59.6197 86.3213 59.8935C81.4137 62.6244 75.9318 63.9866 69.8757 63.9866C63.2186 63.9866 57.9303 62.0369 54.0042 58.1374C50.0781 54.238 48.115 48.8496 48.115 41.9789C48.115 35.1081 49.9979 29.6529 53.7638 25.4464C57.5297 21.2465 62.631 19.1432 69.0677 19.1432C75.5044 19.1432 80.0849 21.1597 83.4702 25.1993C86.8488 29.239 88.5448 34.5539 88.5448 41.1576C88.5448 43.2342 88.438 44.5429 88.2176 45.0837C87.9973 45.6312 87.5099 45.905 86.742 45.905H86.7353ZM61.8631 37.6387H75.2841C75.1773 35.1816 74.603 33.1784 73.5681 31.6227C72.5331 30.0669 70.9774 29.2924 68.9008 29.2924C66.9911 29.2924 65.3953 30.0135 64.1133 31.4624C62.8313 32.9114 62.0835 34.9679 61.8631 37.6387Z" fill="white"/>
<path d="M100.236 4.25326H101.385C104.056 4.25326 105.845 4.3868 106.747 4.66056C107.648 4.93432 108.176 5.42843 108.342 6.1362L113.577 30.2739C115.053 36.931 116.221 43.1474 117.096 48.9297C118.024 42.7133 119.193 36.4903 120.615 30.2739L125.937 6.1362C126.104 5.37501 126.564 4.86755 127.325 4.6205C128.087 4.37345 129.809 4.25326 132.48 4.25326H133.215C135.832 4.25326 137.561 4.3868 138.409 4.66056C139.257 4.93432 139.758 5.42843 139.925 6.1362L145.407 30.3607C146.769 36.1431 147.944 42.3394 148.926 48.9364C150.235 40.9706 151.35 34.7809 152.278 30.3607L157.272 6.1362C157.439 5.37501 157.927 4.86755 158.748 4.6205C159.569 4.37345 161.339 4.25326 164.07 4.25326H164.564C166.527 4.25326 168.002 4.34674 168.984 4.54037C169.965 4.73401 170.553 4.96103 170.74 5.23479C170.934 5.50855 170.974 5.88915 170.86 6.38325L155.97 61.3691C155.803 62.0235 155.262 62.4909 154.334 62.758C153.406 63.0317 151.637 63.1653 149.013 63.1653H148.031C145.193 63.1653 143.297 63.0451 142.342 62.798C141.387 62.551 140.827 62.0769 140.666 61.3625L136.493 44.4227C134.804 37.6054 133.549 30.3741 132.727 22.7355C131.853 29.3391 130.517 36.5637 128.721 44.4227L124.715 61.3625C124.548 62.0168 124.034 62.4842 123.159 62.7513C122.284 63.0251 120.542 63.1586 117.924 63.1586H116.288C113.504 63.1586 111.721 63.0518 110.927 62.8314C110.132 62.6111 109.631 62.1237 109.411 61.3558L93.7797 6.3699C93.6662 5.9893 93.6596 5.66213 93.7397 5.38837C93.8198 5.1146 94.0936 4.89426 94.561 4.73401C95.0217 4.56708 95.7094 4.44689 96.6042 4.36677C97.4989 4.28664 98.7208 4.24658 100.243 4.24658L100.236 4.25326Z" fill="white"/>
<path d="M178.999 13.0537C177.497 11.5514 176.749 9.76859 176.749 7.69202C176.749 5.61544 177.497 3.8193 178.999 2.29024C180.502 0.761189 182.365 0 184.608 0C186.852 0 188.728 0.767866 190.257 2.29024C191.786 3.8193 192.547 5.61544 192.547 7.69202C192.547 9.76859 191.779 11.5514 190.257 13.0537C188.728 14.5561 186.845 15.3039 184.608 15.3039C182.371 15.3039 180.502 14.5561 178.999 13.0537ZM184.608 19.9645H185.016C187.74 19.9645 189.476 20.0847 190.21 20.3318C190.945 20.5788 191.312 21.0529 191.312 21.7607V61.3625C191.312 62.0703 190.945 62.5511 190.21 62.7981C189.476 63.0452 187.74 63.1653 185.016 63.1653H184.608C182.532 63.1653 181.023 63.0986 180.068 62.9584C179.113 62.8248 178.539 62.6445 178.352 62.4242C178.158 62.2038 178.065 61.85 178.065 61.3625V21.7607C178.065 21.2666 178.158 20.9127 178.352 20.699C178.545 20.4787 179.113 20.3051 180.068 20.1648C181.023 20.0313 182.538 19.9578 184.608 19.9578V19.9645Z" fill="white"/>
<path d="M200.967 54.8257L201.789 53.4368C202.77 51.8009 203.518 50.7793 204.039 50.3654C204.56 49.9581 205.087 49.9714 205.635 50.4054C208.906 52.6957 212.265 53.8441 215.697 53.8441C219.463 53.8441 221.346 52.8359 221.346 50.8194C221.346 50.3253 221.192 49.9046 220.898 49.5508C220.598 49.1969 220.051 48.8563 219.263 48.5292C218.468 48.202 217.84 47.9549 217.38 47.7947C216.919 47.6278 216.138 47.3874 215.049 47.0602C213.033 46.5127 211.37 45.9852 210.055 45.4644C208.746 44.9436 207.257 44.169 205.595 43.1341C203.932 42.0991 202.677 40.7503 201.829 39.0811C200.981 37.4185 200.56 35.4688 200.56 33.2319C200.56 28.9252 202.209 25.4999 205.508 22.9626C208.806 20.4253 212.993 19.1566 218.067 19.1566C223.629 19.1566 228.297 20.492 232.063 23.1696C232.557 23.4433 232.757 23.8907 232.677 24.5183C232.597 25.146 232.143 26.1943 231.328 27.6699L230.507 29.1456C229.198 31.4358 228.023 32.2838 226.988 31.6829C224.15 29.9935 221.312 29.1456 218.475 29.1456C216.672 29.1456 215.31 29.446 214.382 30.047C213.614 30.5411 213.233 31.2488 213.233 32.177C213.233 32.6711 213.38 33.0917 213.681 33.4456C213.981 33.7995 214.529 34.1534 215.316 34.5073C216.104 34.8611 216.752 35.1216 217.239 35.2818C217.727 35.4421 218.548 35.6891 219.697 36.0163C221.88 36.6706 223.569 37.2315 224.771 37.6922C225.973 38.153 227.415 38.9075 229.111 39.9424C230.801 40.9774 232.056 42.2727 232.877 43.8285C233.698 45.3843 234.106 47.2271 234.106 49.3505C234.106 53.4435 232.684 56.8488 229.852 59.5798C226.794 62.5244 222.16 64 215.944 64C209.728 64 204.326 62.3908 200.233 59.1725C199.745 58.7384 199.552 58.231 199.659 57.6568C199.765 57.0825 200.206 56.1411 200.967 54.8323V54.8257Z" fill="white"/>
<path d="M278.215 45.905H253.423C254.297 50.9262 257.435 53.4301 262.831 53.4301C266.43 53.4301 270.356 52.502 274.616 50.6457C275.11 50.4254 275.57 50.5255 276.004 50.9328C276.438 51.3401 276.879 52.2282 277.313 53.5903L277.968 55.5534C278.462 57.0825 278.689 58.1174 278.662 58.6649C278.635 59.2124 278.348 59.6197 277.801 59.8935C272.893 62.6244 267.411 63.9866 261.355 63.9866C254.698 63.9866 249.41 62.0369 245.483 58.1374C241.557 54.238 239.594 48.8496 239.594 41.9789C239.594 35.1081 241.477 29.6529 245.243 25.4464C249.009 21.2465 254.11 19.1432 260.547 19.1432C266.984 19.1432 271.564 21.1597 274.949 25.1993C278.328 29.239 280.024 34.5539 280.024 41.1576C280.024 43.2342 279.917 44.5429 279.697 45.0837C279.477 45.6312 278.989 45.905 278.221 45.905H278.215ZM253.342 37.6387H266.763C266.657 35.1816 266.082 33.1784 265.047 31.6227C264.012 30.0669 262.457 29.2924 260.38 29.2924C258.47 29.2924 256.875 30.0135 255.593 31.4624C254.311 32.9114 253.563 34.9679 253.342 37.6387Z" fill="white"/>
<path d="M288.077 61.8634C286.574 60.4478 285.827 58.7251 285.827 56.7087C285.827 54.6922 286.574 52.9695 288.077 51.5539C289.579 50.1384 291.362 49.424 293.439 49.424C295.515 49.424 297.285 50.1317 298.76 51.5539C300.236 52.9762 300.97 54.6922 300.97 56.7087C300.97 58.7251 300.236 60.4478 298.76 61.8634C297.285 63.2789 295.515 63.9934 293.439 63.9934C291.362 63.9934 289.579 63.2856 288.077 61.8634Z" fill="white"/>
</svg>
